# xmcd
#
# Track frame offsets:
#	150
#	17855
#	31839
#	44689
#	62016
#	76081
#	92443
#	106803
#	122324
#	135283
#	146764
#	163109
#	175389
#	190181
#	211640
#	230681
#
# Disc length: 3292 seconds
#
# Revision: 1
# Processed by: cddbd v1.5.2PL0 Copyright (c) Steve Scherf et al.
# Submitted via: audiograbber 1.83.01
#
DISCID=c90cda10
DTITLE=Joe Nichols - Crickets
DYEAR=2013
DGENRE=Country
TTITLE0=Just Let Me Fall In Love With You
TTITLE1=Hard To Be Cool
TTITLE2=Baby You're In Love With Me
TTITLE3=Yeah
TTITLE4=Billy Graham's Bible
TTITLE5=Better Than Beautiful
TTITLE6=Gotta Love It
TTITLE7=Sunny And 75
TTITLE8=Y'ant To
TTITLE9=Hee Haw
TTITLE10=Love Has A Way
TTITLE11=Smile On Mine
TTITLE12=Open Up A Can
TTITLE13=Old School Country Song
TTITLE14=Footlights
TTITLE15=Crickets
EXTD=
EXTT0=
EXTT1=
EXTT2=
EXTT3=
EXTT4=
EXTT5=
EXTT6=
EXTT7=
EXTT8=
EXTT9=
EXTT10=
EXTT11=
EXTT12=
EXTT13=
EXTT14=
EXTT15=
PLAYORDER=
